<?xml version="1.0" standalone="no"?><!DOCTYPE svg PUBLIC "-//W3C//DTD SVG 1.1//EN" "http://www.w3.org/Graphics/SVG/1.1/DTD/svg11.dtd"><svg t="1653028499049" class="icon" viewBox="0 0 1024 1024" version="1.1" xmlns="http://www.w3.org/2000/svg" p-id="3000" xmlns:xlink="http://www.w3.org/1999/xlink" width="200" height="200"><defs><style type="text/css">@font-face { font-family: feedback-iconfont; src: url("//at.alicdn.com/t/font_1031158_u69w8yhxdu.woff2?t=1630033759944") format("woff2"), url("//at.alicdn.com/t/font_1031158_u69w8yhxdu.woff?t=1630033759944") format("woff"), url("//at.alicdn.com/t/font_1031158_u69w8yhxdu.ttf?t=1630033759944") format("truetype"); }
</style></defs><path d="M512 0C230.4 0 0 227.2 0 512c0 281.6 230.4 512 512 512 284.8 0 512-227.2 512-512S796.8 0 512 0z m0 819.2c-28.8 0-51.2-22.4-51.2-51.2s22.4-51.2 51.2-51.2c28.8 0 51.2 22.4 51.2 51.2 3.2 28.8-22.4 51.2-51.2 51.2z m54.4-220.8c0 28.8-22.4 51.2-51.2 51.2-28.8 0-51.2-22.4-51.2-51.2V256c0-28.8 22.4-51.2 51.2-51.2 28.8 0 51.2 22.4 51.2 51.2v342.4z" p-id="3001" fill="#707070"></path></svg>